<?xml version="1.0" encoding="utf-8"?>
<!-- Generator: Adobe Illustrator 28.2.0, SVG Export Plug-In . SVG Version: 6.00 Build 0)  -->
<svg version="1.1" id="Capa_1" xmlns="http://www.w3.org/2000/svg" xmlns:xlink="http://www.w3.org/1999/xlink" x="0px" y="0px"
	 viewBox="0 0 352.4 59" style="enable-background:new 0 0 352.4 59;" xml:space="preserve">
<path d="M18.8,59c-3.7,0-7-0.6-9.8-1.8s-5-3-6.6-5.2C0.8,49.7,0,47,0,43.9h10.4C10.3,46,11,47.7,12.5,49s3.6,1.9,6.2,1.9
	c1.9,0,3.4-0.3,4.6-1c1.2-0.6,1.8-1.5,1.8-2.7c0-1-0.4-1.8-1.3-2.4c-0.9-0.6-2-1.1-3.5-1.4c-1.4-0.4-3-0.7-4.7-1.1s-3.5-0.8-5.2-1.4
	c-1.8-0.5-3.3-1.2-4.8-2.1c-1.4-0.9-2.6-2-3.5-3.5S0.8,32,0.8,29.8c0-2.5,0.7-4.7,2.2-6.6s3.4-3.3,6-4.3s5.5-1.5,8.9-1.5
	c5.1,0,9.3,1.2,12.4,3.5c3.2,2.4,4.9,5.7,5.3,9.9H25.2c-0.1-1.8-0.8-3.1-2.1-4c-1.3-0.9-3.1-1.4-5.2-1.4c-1.8,0-3.2,0.3-4.2,0.9
	s-1.6,1.5-1.6,2.8c0,1,0.4,1.8,1.3,2.3c0.9,0.5,2,1,3.5,1.3c1.4,0.3,3,0.6,4.8,0.9c1.8,0.3,3.5,0.7,5.2,1.2s3.3,1.2,4.7,2
	c1.4,0.9,2.6,2,3.5,3.4s1.3,3.3,1.3,5.5c0,4.1-1.6,7.2-4.8,9.5C28.4,57.8,24.2,58.9,18.8,59L18.8,59z"/>
<path d="M63,59c-4.3,0-8-0.8-11.1-2.5s-5.5-4.1-7.1-7.2c-1.7-3.1-2.5-6.8-2.5-11.1s0.8-8.1,2.5-11.2s4.1-5.5,7.3-7.1s7-2.5,11.5-2.5
	c7,0,12.1,2,15.3,6s4.5,9.5,4,16.5H51.1l0.1-7.7h20.2c-0.1-1.8-1-3.3-2.4-4.4S65.7,26,63.5,26c-3.4,0-6,1.1-7.6,3.2
	s-2.4,5.3-2.4,9.4c0,2.1,0.4,3.9,1.1,5.7s1.8,3.1,3.2,4.1s3.2,1.5,5.3,1.5c2.2,0,4.1-0.5,5.7-1.6s2.5-2.5,2.8-4.2h11.2
	c-0.5,4.5-2.5,8.1-6,10.8C73.2,57.6,68.6,58.9,63,59L63,59z"/>
<path d="M89.6,58.1v-9h37.1v9H89.6z M93.1,27.2v-9h28.8v9H93.1z M101,58.1V14.3c0-2.8,0.6-5.3,1.9-7.4c1.2-2.1,2.9-3.8,5.1-5
	s4.6-1.8,7.2-1.8h12.4v9h-8c-1.3,0-2.6,0.1-3.7,0.4s-2.1,0.7-2.7,1.5s-1,1.9-1,3.4v43.8L101,58.1L101,58.1z M118.8,27.2v-9h24v9
	H118.8L118.8,27.2z M136.1,58.1v-9h35.7v9H136.1z M139.7,27.2v-9h13.5v9H139.7z M147.6,58.1V18.2h11.2v39.9
	C158.8,58.1,147.6,58.1,147.6,58.1z"/>
<path d="M180.8,58.1V18.2h10.8l0.4,7.2v32.7C192,58.1,180.8,58.1,180.8,58.1z M207.4,38.1v-5.4c0-1.8-0.5-3.3-1.4-4.4
	s-2.4-1.7-4.3-1.7c-2.1,0-4.2,0.7-6.1,2.1s-3.7,3.9-5.5,7.5l-1.1-9.4c1.2-2.1,2.6-3.9,4.1-5.3s3.1-2.5,4.9-3.2s3.8-1.1,5.9-1.1
	c4.3,0,7.8,1.3,10.5,3.9c2.8,2.6,4.2,6.4,4.2,11.5V38L207.4,38.1L207.4,38.1z"/>
<path d="M243.7,59c-4.3,0-7.9-0.8-11-2.5s-5.4-4.1-7.1-7.2c-1.6-3.1-2.5-6.8-2.5-11.1s0.8-8.1,2.5-11.1c1.6-3.1,4-5.5,7.1-7.1
	c3.1-1.7,6.7-2.5,11-2.5c6.4,0,11.4,1.8,15,5.5c3.6,3.7,5.4,8.8,5.4,15.3c0,4.3-0.8,8-2.4,11.1s-4,5.5-7,7.2S248,58.9,243.7,59
	L243.7,59z"/>
<path d="M270.5,27.2v-9h28.8v9H270.5z M291.8,58.1c-2.7,0-5-0.6-7.1-1.8c-2-1.2-3.6-2.9-4.7-5.1c-1.1-2.2-1.6-4.6-1.6-7.4V11.5
	l11.2-5v37.2c0,1.2,0.2,2.3,0.5,3c0.4,0.8,1,1.4,2,1.7c1,0.4,2.4,0.5,4.1,0.5h10.1v9L291.8,58.1L291.8,58.1z"/>
<path d="M314.6,58.1V4.9h11.2V58L314.6,58.1L314.6,58.1z M341.2,58.1V33.6c0-2.1-0.5-3.8-1.6-5s-2.4-1.9-4.2-1.9c-2,0-3.8,0.7-5.4,2
	s-3.4,3.6-5.2,6.8l-1.6-9.4c1.8-3.2,4-5.4,6.6-6.7s5.2-2,7.9-2c3.1,0,5.7,0.6,7.9,1.9s3.9,3.1,5,5.4c1.2,2.3,1.8,5,1.8,8.1V58
	L341.2,58.1L341.2,58.1z"/>
</svg>
