<?xml version="1.0" encoding="utf-8"?>
<!-- Generator: Adobe Illustrator 28.2.0, SVG Export Plug-In . SVG Version: 6.00 Build 0)  -->
<svg version="1.1" id="Capa_1" xmlns="http://www.w3.org/2000/svg" xmlns:xlink="http://www.w3.org/1999/xlink" x="0px" y="0px"
	 viewBox="0 0 350 59" style="enable-background:new 0 0 350 59;" xml:space="preserve">
<path d="M16.4,59c-3.7,0-7-0.6-9.8-1.8c-2.8-1.2-5-3-6.6-5.2c-1.6-2.3-2.4-5-2.4-8.1H8C7.9,46,8.6,47.7,10.1,49s3.6,1.9,6.2,1.9
	c1.9,0,3.4-0.3,4.6-1c1.2-0.6,1.8-1.5,1.8-2.7c0-1-0.4-1.8-1.3-2.4s-2-1.1-3.5-1.4c-1.4-0.4-3-0.7-4.7-1.1S9.7,41.5,8,40.9
	c-1.8-0.5-3.3-1.2-4.8-2.1c-1.4-0.9-2.6-2-3.5-3.5c-0.9-1.5-1.3-3.3-1.3-5.5c0-2.5,0.7-4.7,2.2-6.6s3.4-3.3,6-4.3s5.5-1.5,8.9-1.5
	c5.1,0,9.3,1.2,12.4,3.5c3.2,2.4,4.9,5.7,5.3,9.9H22.8c-0.1-1.8-0.8-3.1-2.1-4s-3.1-1.4-5.2-1.4c-1.8,0-3.2,0.3-4.2,0.9
	s-1.6,1.5-1.6,2.8c0,1,0.4,1.8,1.3,2.3c0.9,0.5,2,1,3.5,1.3c1.4,0.3,3,0.6,4.8,0.9c1.8,0.3,3.5,0.7,5.2,1.2s3.3,1.2,4.7,2
	c1.4,0.9,2.6,2,3.5,3.4c0.9,1.4,1.3,3.3,1.3,5.5c0,4.1-1.6,7.2-4.8,9.5C26,57.8,21.8,58.9,16.4,59L16.4,59z"/>
<path d="M60.6,59c-4.3,0-8-0.8-11.1-2.5s-5.5-4.1-7.1-7.2c-1.7-3.1-2.5-6.8-2.5-11.1s0.8-8.1,2.5-11.2c1.7-3.1,4.1-5.5,7.3-7.1
	c3.2-1.6,7-2.5,11.5-2.5c7,0,12.1,2,15.3,6s4.5,9.5,4,16.5H48.7l0.1-7.7H69c-0.1-1.8-1-3.3-2.4-4.4S63.3,26,61.1,26
	c-3.4,0-6,1.1-7.6,3.2c-1.6,2.1-2.4,5.3-2.4,9.4c0,2.1,0.4,3.9,1.1,5.7s1.8,3.1,3.2,4.1c1.4,1,3.2,1.5,5.3,1.5
	c2.2,0,4.1-0.5,5.7-1.6s2.5-2.5,2.8-4.2h11.2c-0.5,4.5-2.5,8.1-6,10.8C70.8,57.6,66.2,58.9,60.6,59L60.6,59z"/>
<path d="M87.2,58.1v-9h37.1v9H87.2z M90.7,27.2v-9h28.8v9H90.7z M98.6,58.1V14.3c0-2.8,0.6-5.3,1.9-7.4c1.2-2.1,2.9-3.8,5.1-5
	s4.6-1.8,7.2-1.8h12.4v9h-8c-1.3,0-2.6,0.1-3.7,0.4s-2.1,0.7-2.7,1.5s-1,1.9-1,3.4v43.8L98.6,58.1L98.6,58.1z M116.4,27.2v-9h24v9
	H116.4L116.4,27.2z M133.7,58.1v-9h35.7v9H133.7z M137.3,27.2v-9h13.5v9H137.3z M145.2,58.1V18.2h11.2v39.9H145.2z"/>
<path d="M178.4,58.1V18.2h10.8l0.4,7.2v32.7H178.4z M205,38.1v-5.4c0-1.8-0.5-3.3-1.4-4.4s-2.4-1.7-4.3-1.7c-2.1,0-4.2,0.7-6.1,2.1
	s-3.7,3.9-5.5,7.5l-1.1-9.4c1.2-2.1,2.6-3.9,4.1-5.3s3.1-2.5,4.9-3.2s3.8-1.1,5.9-1.1c4.3,0,7.8,1.3,10.5,3.9
	c2.8,2.6,4.2,6.4,4.2,11.5v5.4L205,38.1L205,38.1z"/>
<path d="M241.3,59c-4.3,0-7.9-0.8-11-2.5c-3.1-1.7-5.4-4.1-7.1-7.2c-1.6-3.1-2.5-6.8-2.5-11.1s0.8-8.1,2.5-11.1
	c1.6-3.1,4-5.5,7.1-7.1c3.1-1.7,6.7-2.5,11-2.5c6.4,0,11.4,1.8,15,5.5s5.4,8.8,5.4,15.3c0,4.3-0.8,8-2.4,11.1s-4,5.5-7,7.2
	S245.6,58.9,241.3,59L241.3,59z"/>
<path d="M268.1,27.2v-9h28.8v9H268.1z M289.4,58.1c-2.7,0-5-0.6-7.1-1.8c-2-1.2-3.6-2.9-4.7-5.1c-1.1-2.2-1.6-4.6-1.6-7.4V11.5
	l11.2-5v37.2c0,1.2,0.2,2.3,0.5,3c0.4,0.8,1,1.4,2,1.7c1,0.4,2.4,0.5,4.1,0.5h10.1v9L289.4,58.1L289.4,58.1z"/>
<path d="M312.2,58.1V4.9h11.2v53.1H312.2z M338.8,58.1V33.6c0-2.1-0.5-3.8-1.6-5s-2.4-1.9-4.2-1.9c-2,0-3.8,0.7-5.4,2
	c-1.6,1.3-3.4,3.6-5.2,6.8l-1.6-9.4c1.8-3.2,4-5.4,6.6-6.7s5.2-2,7.9-2c3.1,0,5.7,0.6,7.9,1.9s3.9,3.1,5,5.4c1.2,2.3,1.8,5,1.8,8.1
	v25.2L338.8,58.1L338.8,58.1z"/>
</svg>
